<?xml version="1.0" standalone="no"?>
<!DOCTYPE svg PUBLIC "-//W3C//DTD SVG 20010904//EN"
 "http://www.w3.org/TR/2001/REC-SVG-20010904/DTD/svg10.dtd">
<svg version="1.0" xmlns="http://www.w3.org/2000/svg"
 width="640.000000pt" height="640.000000pt" viewBox="0 0 640.000000 640.000000"
 preserveAspectRatio="xMidYMid meet">
<metadata>
Created by potrace 1.14, written by Peter Selinger 2001-2017
</metadata>
<g transform="translate(0.000000,640.000000) scale(0.100000,-0.100000)"
fill="#000000" stroke="none">
<path d="M595 6323 c-258 -54 -441 -223 -505 -467 -18 -68 -19 -165 -19 -2656
0 -2517 1 -2587 19 -2658 58 -222 234 -396 456 -452 78 -19 115 -20 2664 -19
l2585 0 75 22 c223 66 384 232 440 455 19 75 20 138 20 2649 0 2508 -1 2630
-29 2698 -38 91 -50 116 -80 160 -82 121 -220 218 -367 255 -78 19 -115 20
-2659 19 -1419 -1 -2589 -3 -2600 -6z"/>
</g>
</svg>
