<?xml version="1.0" standalone="no"?>
<!DOCTYPE svg PUBLIC "-//W3C//DTD SVG 20010904//EN"
 "http://www.w3.org/TR/2001/REC-SVG-20010904/DTD/svg10.dtd">
<svg version="1.0" xmlns="http://www.w3.org/2000/svg"
 width="800.000000pt" height="800.000000pt" viewBox="0 0 800.000000 800.000000"
 preserveAspectRatio="xMidYMid meet">
<metadata>
Created by potrace 1.14, written by Peter Selinger 2001-2017
</metadata>
<g transform="translate(0.000000,800.000000) scale(0.100000,-0.100000)"
fill="#000000" stroke="none">
<path d="M650 7894 c-84 -18 -231 -91 -298 -148 -122 -104 -218 -260 -247
-401 -22 -106 -22 -6584 0 -6690 29 -141 125 -297 247 -401 69 -59 214 -131
303 -149 106 -22 6584 -22 6690 0 141 29 297 125 401 247 59 69 131 214 149
303 22 106 22 6584 0 6690 -18 89 -90 234 -149 303 -104 122 -260 218 -401
247 -103 21 -6595 21 -6695 -1z m3459 -1319 l90 -109 -67 -51 c-457 -348 -859
-846 -1087 -1345 -195 -426 -274 -789 -262 -1198 11 -377 93 -714 252 -1037
113 -230 242 -408 392 -541 272 -241 508 -334 848 -334 497 0 880 231 1095
658 184 365 231 854 125 1302 -97 413 -338 853 -639 1168 -135 142 -372 322
-534 406 -118 60 -299 120 -437 144 l-110 19 195 195 c136 136 254 241 390
349 167 133 436 337 478 363 16 9 171 -49 296 -111 650 -324 1134 -1020 1260
-1808 38 -237 47 -505 26 -731 -52 -532 -245 -1065 -548 -1504 -378 -549 -934
-942 -1498 -1059 -169 -34 -281 -45 -489 -45 -393 1 -701 72 -1050 244 -239
117 -415 241 -594 420 -372 370 -605 857 -661 1382 -13 125 -13 401 1 548 52
581 281 1147 650 1610 107 135 330 363 465 475 262 219 589 421 899 556 156
68 408 159 417 150 3 -3 47 -55 97 -116z"/>
</g>
</svg>
